<svg xmlns="http://www.w3.org/2000/svg" viewBox="0 0 400 400" width="400" height="400">
<defs>
<radialGradient id="bg" cx="50%" cy="40%" r="80%"><stop offset="0" stop-color="#e5eae8"/><stop offset="1" stop-color="#c5d1cc"/></radialGradient>
<filter id="sh" x="-30%" y="-30%" width="160%" height="170%"><feDropShadow dx="0" dy="9" stdDeviation="9" flood-color="#0b1a17" flood-opacity=".35"/></filter>
<linearGradient id="m1" x1="0" y1="0" x2="1" y2="1"><stop offset="0" stop-color="#ecd4ca"/><stop offset=".35" stop-color="#d4a08a"/><stop offset=".7" stop-color="#9f7868"/><stop offset="1" stop-color="#e1bcad"/></linearGradient><linearGradient id="m2" x1="0" y1="0" x2="1" y2="1"><stop offset="0" stop-color="#e2cdc4"/><stop offset=".35" stop-color="#bf907c"/><stop offset=".7" stop-color="#8f6c5d"/><stop offset="1" stop-color="#d2b1a3"/></linearGradient>
</defs>
<rect width="400" height="400" fill="url(#bg)"/>
<rect x="146" y="-10" width="108" height="160" fill="#15171a"/><rect x="146" y="-10" width="9" height="160" fill="#0f1012" opacity=".55"/><rect x="245" y="-10" width="9" height="160" fill="#0f1012" opacity=".55"/><rect x="146" y="250" width="108" height="160" fill="#15171a"/><rect x="146" y="250" width="9" height="160" fill="#0f1012" opacity=".55"/><rect x="245" y="250" width="9" height="160" fill="#0f1012" opacity=".55"/><line x1="158" y1="-10" x2="158" y2="150" stroke="#969798" stroke-width="1.4" stroke-dasharray="6 5"/><line x1="158" y1="250" x2="158" y2="410" stroke="#969798" stroke-width="1.4" stroke-dasharray="6 5"/><line x1="242" y1="-10" x2="242" y2="150" stroke="#969798" stroke-width="1.4" stroke-dasharray="6 5"/><line x1="242" y1="250" x2="242" y2="410" stroke="#969798" stroke-width="1.4" stroke-dasharray="6 5"/><circle cx="200" cy="318" r="3.2" fill="#090a0c"/><circle cx="200" cy="342" r="3.2" fill="#090a0c"/><circle cx="200" cy="366" r="3.2" fill="#090a0c"/><circle cx="200" cy="390" r="3.2" fill="#090a0c"/><rect x="145" y="98" width="14" height="32" rx="5" fill="url(#m1)"/><rect x="145" y="270" width="14" height="32" rx="5" fill="url(#m1)"/><rect x="241" y="98" width="14" height="32" rx="5" fill="url(#m1)"/><rect x="241" y="270" width="14" height="32" rx="5" fill="url(#m1)"/><rect x="297" y="191" width="17" height="18" rx="4" fill="url(#m1)"/><circle cx="200" cy="200" r="100" fill="url(#m1)" filter="url(#sh)"/><circle cx="200" cy="200" r="98" fill="none" stroke="#ffffff" stroke-opacity=".35" stroke-width="1"/><circle cx="200" cy="200" r="88" fill="url(#m2)"/><circle cx="200" cy="200" r="84" fill="#16223a"/><circle cx="200" cy="200" r="83" fill="none" stroke="#0e1626" stroke-opacity=".55" stroke-width="2"/><line x1="208.6" y1="118.4" x2="208.0" y2="123.4" stroke="#e8c3ae" stroke-width="1" stroke-linecap="butt" /><line x1="217.0" y1="119.8" x2="216.0" y2="124.7" stroke="#e8c3ae" stroke-width="1" stroke-linecap="butt" /><line x1="225.3" y1="122.0" x2="223.8" y2="126.8" stroke="#e8c3ae" stroke-width="1" stroke-linecap="butt" /><line x1="233.4" y1="125.1" x2="231.3" y2="129.7" stroke="#e8c3ae" stroke-width="1" stroke-linecap="butt" /><line x1="248.2" y1="133.7" x2="245.3" y2="137.7" stroke="#e8c3ae" stroke-width="1" stroke-linecap="butt" /><line x1="254.9" y1="139.1" x2="251.5" y2="142.8" stroke="#e8c3ae" stroke-width="1" stroke-linecap="butt" /><line x1="260.9" y1="145.1" x2="257.2" y2="148.5" stroke="#e8c3ae" stroke-width="1" stroke-linecap="butt" /><line x1="266.3" y1="151.8" x2="262.3" y2="154.7" stroke="#e8c3ae" stroke-width="1" stroke-linecap="butt" /><line x1="274.9" y1="166.6" x2="270.3" y2="168.7" stroke="#e8c3ae" stroke-width="1" stroke-linecap="butt" /><line x1="278.0" y1="174.7" x2="273.2" y2="176.2" stroke="#e8c3ae" stroke-width="1" stroke-linecap="butt" /><line x1="280.2" y1="183.0" x2="275.3" y2="184.0" stroke="#e8c3ae" stroke-width="1" stroke-linecap="butt" /><line x1="281.6" y1="191.4" x2="276.6" y2="192.0" stroke="#e8c3ae" stroke-width="1" stroke-linecap="butt" /><line x1="281.6" y1="208.6" x2="276.6" y2="208.0" stroke="#e8c3ae" stroke-width="1" stroke-linecap="butt" /><line x1="280.2" y1="217.0" x2="275.3" y2="216.0" stroke="#e8c3ae" stroke-width="1" stroke-linecap="butt" /><line x1="278.0" y1="225.3" x2="273.2" y2="223.8" stroke="#e8c3ae" stroke-width="1" stroke-linecap="butt" /><line x1="274.9" y1="233.4" x2="270.3" y2="231.3" stroke="#e8c3ae" stroke-width="1" stroke-linecap="butt" /><line x1="266.3" y1="248.2" x2="262.3" y2="245.3" stroke="#e8c3ae" stroke-width="1" stroke-linecap="butt" /><line x1="260.9" y1="254.9" x2="257.2" y2="251.5" stroke="#e8c3ae" stroke-width="1" stroke-linecap="butt" /><line x1="254.9" y1="260.9" x2="251.5" y2="257.2" stroke="#e8c3ae" stroke-width="1" stroke-linecap="butt" /><line x1="248.2" y1="266.3" x2="245.3" y2="262.3" stroke="#e8c3ae" stroke-width="1" stroke-linecap="butt" /><line x1="233.4" y1="274.9" x2="231.3" y2="270.3" stroke="#e8c3ae" stroke-width="1" stroke-linecap="butt" /><line x1="225.3" y1="278.0" x2="223.8" y2="273.2" stroke="#e8c3ae" stroke-width="1" stroke-linecap="butt" /><line x1="217.0" y1="280.2" x2="216.0" y2="275.3" stroke="#e8c3ae" stroke-width="1" stroke-linecap="butt" /><line x1="208.6" y1="281.6" x2="208.0" y2="276.6" stroke="#e8c3ae" stroke-width="1" stroke-linecap="butt" /><line x1="191.4" y1="281.6" x2="192.0" y2="276.6" stroke="#e8c3ae" stroke-width="1" stroke-linecap="butt" /><line x1="183.0" y1="280.2" x2="184.0" y2="275.3" stroke="#e8c3ae" stroke-width="1" stroke-linecap="butt" /><line x1="174.7" y1="278.0" x2="176.2" y2="273.2" stroke="#e8c3ae" stroke-width="1" stroke-linecap="butt" /><line x1="166.6" y1="274.9" x2="168.7" y2="270.3" stroke="#e8c3ae" stroke-width="1" stroke-linecap="butt" /><line x1="151.8" y1="266.3" x2="154.7" y2="262.3" stroke="#e8c3ae" stroke-width="1" stroke-linecap="butt" /><line x1="145.1" y1="260.9" x2="148.5" y2="257.2" stroke="#e8c3ae" stroke-width="1" stroke-linecap="butt" /><line x1="139.1" y1="254.9" x2="142.8" y2="251.5" stroke="#e8c3ae" stroke-width="1" stroke-linecap="butt" /><line x1="133.7" y1="248.2" x2="137.7" y2="245.3" stroke="#e8c3ae" stroke-width="1" stroke-linecap="butt" /><line x1="125.1" y1="233.4" x2="129.7" y2="231.3" stroke="#e8c3ae" stroke-width="1" stroke-linecap="butt" /><line x1="122.0" y1="225.3" x2="126.8" y2="223.8" stroke="#e8c3ae" stroke-width="1" stroke-linecap="butt" /><line x1="119.8" y1="217.0" x2="124.7" y2="216.0" stroke="#e8c3ae" stroke-width="1" stroke-linecap="butt" /><line x1="118.4" y1="208.6" x2="123.4" y2="208.0" stroke="#e8c3ae" stroke-width="1" stroke-linecap="butt" /><line x1="118.4" y1="191.4" x2="123.4" y2="192.0" stroke="#e8c3ae" stroke-width="1" stroke-linecap="butt" /><line x1="119.8" y1="183.0" x2="124.7" y2="184.0" stroke="#e8c3ae" stroke-width="1" stroke-linecap="butt" /><line x1="122.0" y1="174.7" x2="126.8" y2="176.2" stroke="#e8c3ae" stroke-width="1" stroke-linecap="butt" /><line x1="125.1" y1="166.6" x2="129.7" y2="168.7" stroke="#e8c3ae" stroke-width="1" stroke-linecap="butt" /><line x1="133.7" y1="151.8" x2="137.7" y2="154.7" stroke="#e8c3ae" stroke-width="1" stroke-linecap="butt" /><line x1="139.1" y1="145.1" x2="142.8" y2="148.5" stroke="#e8c3ae" stroke-width="1" stroke-linecap="butt" /><line x1="145.1" y1="139.1" x2="148.5" y2="142.8" stroke="#e8c3ae" stroke-width="1" stroke-linecap="butt" /><line x1="151.8" y1="133.7" x2="154.7" y2="137.7" stroke="#e8c3ae" stroke-width="1" stroke-linecap="butt" /><line x1="166.6" y1="125.1" x2="168.7" y2="129.7" stroke="#e8c3ae" stroke-width="1" stroke-linecap="butt" /><line x1="174.7" y1="122.0" x2="176.2" y2="126.8" stroke="#e8c3ae" stroke-width="1" stroke-linecap="butt" /><line x1="183.0" y1="119.8" x2="184.0" y2="124.7" stroke="#e8c3ae" stroke-width="1" stroke-linecap="butt" /><line x1="191.4" y1="118.4" x2="192.0" y2="123.4" stroke="#e8c3ae" stroke-width="1" stroke-linecap="butt" /><text x="200.0" y="135.0" dy=".35em" fill="#e8c3ae" font-family="Georgia, 'Times New Roman', serif" font-size="16" text-anchor="middle">XII</text><text x="232.5" y="143.7" dy=".35em" fill="#e8c3ae" font-family="Georgia, 'Times New Roman', serif" font-size="16" text-anchor="middle">I</text><text x="256.3" y="167.5" dy=".35em" fill="#e8c3ae" font-family="Georgia, 'Times New Roman', serif" font-size="16" text-anchor="middle">II</text><text x="265.0" y="200.0" dy=".35em" fill="#e8c3ae" font-family="Georgia, 'Times New Roman', serif" font-size="16" text-anchor="middle">III</text><text x="256.3" y="232.5" dy=".35em" fill="#e8c3ae" font-family="Georgia, 'Times New Roman', serif" font-size="16" text-anchor="middle">IIII</text><text x="232.5" y="256.3" dy=".35em" fill="#e8c3ae" font-family="Georgia, 'Times New Roman', serif" font-size="16" text-anchor="middle">V</text><text x="200.0" y="265.0" dy=".35em" fill="#e8c3ae" font-family="Georgia, 'Times New Roman', serif" font-size="16" text-anchor="middle">VI</text><text x="167.5" y="256.3" dy=".35em" fill="#e8c3ae" font-family="Georgia, 'Times New Roman', serif" font-size="16" text-anchor="middle">VII</text><text x="143.7" y="232.5" dy=".35em" fill="#e8c3ae" font-family="Georgia, 'Times New Roman', serif" font-size="16" text-anchor="middle">VIII</text><text x="135.0" y="200.0" dy=".35em" fill="#e8c3ae" font-family="Georgia, 'Times New Roman', serif" font-size="16" text-anchor="middle">IX</text><text x="143.7" y="167.5" dy=".35em" fill="#e8c3ae" font-family="Georgia, 'Times New Roman', serif" font-size="16" text-anchor="middle">X</text><text x="167.5" y="143.7" dy=".35em" fill="#e8c3ae" font-family="Georgia, 'Times New Roman', serif" font-size="16" text-anchor="middle">XI</text><text x="200" y="166" text-anchor="middle" font-family="Georgia, serif" font-size="9" letter-spacing="2.5" fill="#e8c3ae">ALBERTO</text><line x1="211.5" y1="208.0" x2="164.2" y2="174.9" stroke="#e8c3ae" stroke-width="8" stroke-linecap="round" /><line x1="187.9" y1="207.0" x2="258.2" y2="166.4" stroke="#e8c3ae" stroke-width="6" stroke-linecap="round" /><line x1="188.0" y1="179.2" x2="237.0" y2="264.0" stroke="#e8c3ae" stroke-width="2.2" stroke-linecap="round" /><circle cx="200" cy="200" r="7.5" fill="#e8c3ae"/><circle cx="200" cy="200" r="3" fill="#e8c3ae"/><ellipse cx="178" cy="154" rx="52" ry="24" fill="#fff" opacity=".13" transform="rotate(-28 178 154)"/>
</svg>