<svg xmlns="http://www.w3.org/2000/svg" viewBox="0 0 400 400" width="400" height="400">
<defs>
<radialGradient id="bg" cx="50%" cy="40%" r="80%"><stop offset="0" stop-color="#eaede5"/><stop offset="1" stop-color="#d1d6c6"/></radialGradient>
<filter id="sh" x="-30%" y="-30%" width="160%" height="170%"><feDropShadow dx="0" dy="9" stdDeviation="9" flood-color="#0b1a17" flood-opacity=".35"/></filter>
<linearGradient id="m1" x1="0" y1="0" x2="1" y2="1"><stop offset="0" stop-color="#cdd0d2"/><stop offset=".35" stop-color="#8f979b"/><stop offset=".7" stop-color="#6b7174"/><stop offset="1" stop-color="#b1b6b9"/></linearGradient><linearGradient id="m2" x1="0" y1="0" x2="1" y2="1"><stop offset="0" stop-color="#c6c9cb"/><stop offset=".35" stop-color="#81888c"/><stop offset=".7" stop-color="#616669"/><stop offset="1" stop-color="#a7acae"/></linearGradient>
</defs>
<rect width="400" height="400" fill="url(#bg)"/>
<rect x="146" y="-10" width="108" height="160" fill="#1b2225"/><rect x="146" y="-10" width="9" height="160" fill="#13181a" opacity=".55"/><rect x="245" y="-10" width="9" height="160" fill="#13181a" opacity=".55"/><rect x="146" y="250" width="108" height="160" fill="#1b2225"/><rect x="146" y="250" width="9" height="160" fill="#13181a" opacity=".55"/><rect x="245" y="250" width="9" height="160" fill="#13181a" opacity=".55"/><line x1="150" y1="8" x2="250" y2="8" stroke="#121618" stroke-width="2" opacity=".7"/><line x1="150" y1="24" x2="250" y2="24" stroke="#121618" stroke-width="2" opacity=".7"/><line x1="150" y1="40" x2="250" y2="40" stroke="#121618" stroke-width="2" opacity=".7"/><line x1="150" y1="56" x2="250" y2="56" stroke="#121618" stroke-width="2" opacity=".7"/><line x1="150" y1="72" x2="250" y2="72" stroke="#121618" stroke-width="2" opacity=".7"/><line x1="150" y1="88" x2="250" y2="88" stroke="#121618" stroke-width="2" opacity=".7"/><line x1="150" y1="104" x2="250" y2="104" stroke="#121618" stroke-width="2" opacity=".7"/><line x1="150" y1="120" x2="250" y2="120" stroke="#121618" stroke-width="2" opacity=".7"/><line x1="150" y1="136" x2="250" y2="136" stroke="#121618" stroke-width="2" opacity=".7"/><line x1="150" y1="262" x2="250" y2="262" stroke="#121618" stroke-width="2" opacity=".7"/><line x1="150" y1="278" x2="250" y2="278" stroke="#121618" stroke-width="2" opacity=".7"/><line x1="150" y1="294" x2="250" y2="294" stroke="#121618" stroke-width="2" opacity=".7"/><line x1="150" y1="310" x2="250" y2="310" stroke="#121618" stroke-width="2" opacity=".7"/><line x1="150" y1="326" x2="250" y2="326" stroke="#121618" stroke-width="2" opacity=".7"/><line x1="150" y1="342" x2="250" y2="342" stroke="#121618" stroke-width="2" opacity=".7"/><line x1="150" y1="358" x2="250" y2="358" stroke="#121618" stroke-width="2" opacity=".7"/><line x1="150" y1="374" x2="250" y2="374" stroke="#121618" stroke-width="2" opacity=".7"/><line x1="150" y1="390" x2="250" y2="390" stroke="#121618" stroke-width="2" opacity=".7"/><line x1="150" y1="406" x2="250" y2="406" stroke="#121618" stroke-width="2" opacity=".7"/><rect x="145" y="98" width="14" height="32" rx="5" fill="url(#m1)"/><rect x="145" y="270" width="14" height="32" rx="5" fill="url(#m1)"/><rect x="241" y="98" width="14" height="32" rx="5" fill="url(#m1)"/><rect x="241" y="270" width="14" height="32" rx="5" fill="url(#m1)"/><rect x="297" y="191" width="17" height="18" rx="4" fill="url(#m1)"/><circle cx="200" cy="200" r="100" fill="url(#m1)" filter="url(#sh)"/><circle cx="200" cy="200" r="98" fill="none" stroke="#ffffff" stroke-opacity=".35" stroke-width="1"/><circle cx="200" cy="200" r="88" fill="#141a1c"/><line x1="200.0" y1="113.0" x2="200.0" y2="121.0" stroke="#e8eeec" stroke-width="2.2" stroke-linecap="butt" /><line x1="209.1" y1="113.5" x2="208.7" y2="117.5" stroke="#e8eeec" stroke-width="1.2" stroke-linecap="butt" /><line x1="218.1" y1="114.9" x2="217.3" y2="118.8" stroke="#e8eeec" stroke-width="1.2" stroke-linecap="butt" /><line x1="226.9" y1="117.3" x2="225.6" y2="121.1" stroke="#e8eeec" stroke-width="1.2" stroke-linecap="butt" /><line x1="235.4" y1="120.5" x2="233.8" y2="124.2" stroke="#e8eeec" stroke-width="1.2" stroke-linecap="butt" /><line x1="243.5" y1="124.7" x2="239.5" y2="131.6" stroke="#e8eeec" stroke-width="2.2" stroke-linecap="butt" /><line x1="251.1" y1="129.6" x2="248.8" y2="132.9" stroke="#e8eeec" stroke-width="1.2" stroke-linecap="butt" /><line x1="258.2" y1="135.3" x2="255.5" y2="138.3" stroke="#e8eeec" stroke-width="1.2" stroke-linecap="butt" /><line x1="264.7" y1="141.8" x2="261.7" y2="144.5" stroke="#e8eeec" stroke-width="1.2" stroke-linecap="butt" /><line x1="270.4" y1="148.9" x2="267.1" y2="151.2" stroke="#e8eeec" stroke-width="1.2" stroke-linecap="butt" /><line x1="275.3" y1="156.5" x2="268.4" y2="160.5" stroke="#e8eeec" stroke-width="2.2" stroke-linecap="butt" /><line x1="279.5" y1="164.6" x2="275.8" y2="166.2" stroke="#e8eeec" stroke-width="1.2" stroke-linecap="butt" /><line x1="282.7" y1="173.1" x2="278.9" y2="174.4" stroke="#e8eeec" stroke-width="1.2" stroke-linecap="butt" /><line x1="285.1" y1="181.9" x2="281.2" y2="182.7" stroke="#e8eeec" stroke-width="1.2" stroke-linecap="butt" /><line x1="286.5" y1="190.9" x2="282.5" y2="191.3" stroke="#e8eeec" stroke-width="1.2" stroke-linecap="butt" /><line x1="287.0" y1="200.0" x2="279.0" y2="200.0" stroke="#e8eeec" stroke-width="2.2" stroke-linecap="butt" /><line x1="286.5" y1="209.1" x2="282.5" y2="208.7" stroke="#e8eeec" stroke-width="1.2" stroke-linecap="butt" /><line x1="285.1" y1="218.1" x2="281.2" y2="217.3" stroke="#e8eeec" stroke-width="1.2" stroke-linecap="butt" /><line x1="282.7" y1="226.9" x2="278.9" y2="225.6" stroke="#e8eeec" stroke-width="1.2" stroke-linecap="butt" /><line x1="279.5" y1="235.4" x2="275.8" y2="233.8" stroke="#e8eeec" stroke-width="1.2" stroke-linecap="butt" /><line x1="275.3" y1="243.5" x2="268.4" y2="239.5" stroke="#e8eeec" stroke-width="2.2" stroke-linecap="butt" /><line x1="270.4" y1="251.1" x2="267.1" y2="248.8" stroke="#e8eeec" stroke-width="1.2" stroke-linecap="butt" /><line x1="264.7" y1="258.2" x2="261.7" y2="255.5" stroke="#e8eeec" stroke-width="1.2" stroke-linecap="butt" /><line x1="258.2" y1="264.7" x2="255.5" y2="261.7" stroke="#e8eeec" stroke-width="1.2" stroke-linecap="butt" /><line x1="251.1" y1="270.4" x2="248.8" y2="267.1" stroke="#e8eeec" stroke-width="1.2" stroke-linecap="butt" /><line x1="243.5" y1="275.3" x2="239.5" y2="268.4" stroke="#e8eeec" stroke-width="2.2" stroke-linecap="butt" /><line x1="235.4" y1="279.5" x2="233.8" y2="275.8" stroke="#e8eeec" stroke-width="1.2" stroke-linecap="butt" /><line x1="226.9" y1="282.7" x2="225.6" y2="278.9" stroke="#e8eeec" stroke-width="1.2" stroke-linecap="butt" /><line x1="218.1" y1="285.1" x2="217.3" y2="281.2" stroke="#e8eeec" stroke-width="1.2" stroke-linecap="butt" /><line x1="209.1" y1="286.5" x2="208.7" y2="282.5" stroke="#e8eeec" stroke-width="1.2" stroke-linecap="butt" /><line x1="200.0" y1="287.0" x2="200.0" y2="279.0" stroke="#e8eeec" stroke-width="2.2" stroke-linecap="butt" /><line x1="190.9" y1="286.5" x2="191.3" y2="282.5" stroke="#e8eeec" stroke-width="1.2" stroke-linecap="butt" /><line x1="181.9" y1="285.1" x2="182.7" y2="281.2" stroke="#e8eeec" stroke-width="1.2" stroke-linecap="butt" /><line x1="173.1" y1="282.7" x2="174.4" y2="278.9" stroke="#e8eeec" stroke-width="1.2" stroke-linecap="butt" /><line x1="164.6" y1="279.5" x2="166.2" y2="275.8" stroke="#e8eeec" stroke-width="1.2" stroke-linecap="butt" /><line x1="156.5" y1="275.3" x2="160.5" y2="268.4" stroke="#e8eeec" stroke-width="2.2" stroke-linecap="butt" /><line x1="148.9" y1="270.4" x2="151.2" y2="267.1" stroke="#e8eeec" stroke-width="1.2" stroke-linecap="butt" /><line x1="141.8" y1="264.7" x2="144.5" y2="261.7" stroke="#e8eeec" stroke-width="1.2" stroke-linecap="butt" /><line x1="135.3" y1="258.2" x2="138.3" y2="255.5" stroke="#e8eeec" stroke-width="1.2" stroke-linecap="butt" /><line x1="129.6" y1="251.1" x2="132.9" y2="248.8" stroke="#e8eeec" stroke-width="1.2" stroke-linecap="butt" /><line x1="124.7" y1="243.5" x2="131.6" y2="239.5" stroke="#e8eeec" stroke-width="2.2" stroke-linecap="butt" /><line x1="120.5" y1="235.4" x2="124.2" y2="233.8" stroke="#e8eeec" stroke-width="1.2" stroke-linecap="butt" /><line x1="117.3" y1="226.9" x2="121.1" y2="225.6" stroke="#e8eeec" stroke-width="1.2" stroke-linecap="butt" /><line x1="114.9" y1="218.1" x2="118.8" y2="217.3" stroke="#e8eeec" stroke-width="1.2" stroke-linecap="butt" /><line x1="113.5" y1="209.1" x2="117.5" y2="208.7" stroke="#e8eeec" stroke-width="1.2" stroke-linecap="butt" /><line x1="113.0" y1="200.0" x2="121.0" y2="200.0" stroke="#e8eeec" stroke-width="2.2" stroke-linecap="butt" /><line x1="113.5" y1="190.9" x2="117.5" y2="191.3" stroke="#e8eeec" stroke-width="1.2" stroke-linecap="butt" /><line x1="114.9" y1="181.9" x2="118.8" y2="182.7" stroke="#e8eeec" stroke-width="1.2" stroke-linecap="butt" /><line x1="117.3" y1="173.1" x2="121.1" y2="174.4" stroke="#e8eeec" stroke-width="1.2" stroke-linecap="butt" /><line x1="120.5" y1="164.6" x2="124.2" y2="166.2" stroke="#e8eeec" stroke-width="1.2" stroke-linecap="butt" /><line x1="124.7" y1="156.5" x2="131.6" y2="160.5" stroke="#e8eeec" stroke-width="2.2" stroke-linecap="butt" /><line x1="129.6" y1="148.9" x2="132.9" y2="151.2" stroke="#e8eeec" stroke-width="1.2" stroke-linecap="butt" /><line x1="135.3" y1="141.8" x2="138.3" y2="144.5" stroke="#e8eeec" stroke-width="1.2" stroke-linecap="butt" /><line x1="141.8" y1="135.3" x2="144.5" y2="138.3" stroke="#e8eeec" stroke-width="1.2" stroke-linecap="butt" /><line x1="148.9" y1="129.6" x2="151.2" y2="132.9" stroke="#e8eeec" stroke-width="1.2" stroke-linecap="butt" /><line x1="156.5" y1="124.7" x2="160.5" y2="131.6" stroke="#e8eeec" stroke-width="2.2" stroke-linecap="butt" /><line x1="164.6" y1="120.5" x2="166.2" y2="124.2" stroke="#e8eeec" stroke-width="1.2" stroke-linecap="butt" /><line x1="173.1" y1="117.3" x2="174.4" y2="121.1" stroke="#e8eeec" stroke-width="1.2" stroke-linecap="butt" /><line x1="181.9" y1="114.9" x2="182.7" y2="118.8" stroke="#e8eeec" stroke-width="1.2" stroke-linecap="butt" /><line x1="190.9" y1="113.5" x2="191.3" y2="117.5" stroke="#e8eeec" stroke-width="1.2" stroke-linecap="butt" /><circle cx="200.0" cy="118.0" r="4.5" fill="#ff6a2b"/><circle cx="200" cy="200" r="84" fill="#0f1a1d"/><circle cx="200" cy="200" r="83" fill="none" stroke="#0a1113" stroke-opacity=".55" stroke-width="2"/><line x1="208.6" y1="118.4" x2="208.0" y2="123.4" stroke="#e8eeec" stroke-width="1" stroke-linecap="butt" /><line x1="217.0" y1="119.8" x2="216.0" y2="124.7" stroke="#e8eeec" stroke-width="1" stroke-linecap="butt" /><line x1="225.3" y1="122.0" x2="223.8" y2="126.8" stroke="#e8eeec" stroke-width="1" stroke-linecap="butt" /><line x1="233.4" y1="125.1" x2="231.3" y2="129.7" stroke="#e8eeec" stroke-width="1" stroke-linecap="butt" /><line x1="248.2" y1="133.7" x2="245.3" y2="137.7" stroke="#e8eeec" stroke-width="1" stroke-linecap="butt" /><line x1="254.9" y1="139.1" x2="251.5" y2="142.8" stroke="#e8eeec" stroke-width="1" stroke-linecap="butt" /><line x1="260.9" y1="145.1" x2="257.2" y2="148.5" stroke="#e8eeec" stroke-width="1" stroke-linecap="butt" /><line x1="266.3" y1="151.8" x2="262.3" y2="154.7" stroke="#e8eeec" stroke-width="1" stroke-linecap="butt" /><line x1="274.9" y1="166.6" x2="270.3" y2="168.7" stroke="#e8eeec" stroke-width="1" stroke-linecap="butt" /><line x1="278.0" y1="174.7" x2="273.2" y2="176.2" stroke="#e8eeec" stroke-width="1" stroke-linecap="butt" /><line x1="280.2" y1="183.0" x2="275.3" y2="184.0" stroke="#e8eeec" stroke-width="1" stroke-linecap="butt" /><line x1="281.6" y1="191.4" x2="276.6" y2="192.0" stroke="#e8eeec" stroke-width="1" stroke-linecap="butt" /><line x1="281.6" y1="208.6" x2="276.6" y2="208.0" stroke="#e8eeec" stroke-width="1" stroke-linecap="butt" /><line x1="280.2" y1="217.0" x2="275.3" y2="216.0" stroke="#e8eeec" stroke-width="1" stroke-linecap="butt" /><line x1="278.0" y1="225.3" x2="273.2" y2="223.8" stroke="#e8eeec" stroke-width="1" stroke-linecap="butt" /><line x1="274.9" y1="233.4" x2="270.3" y2="231.3" stroke="#e8eeec" stroke-width="1" stroke-linecap="butt" /><line x1="266.3" y1="248.2" x2="262.3" y2="245.3" stroke="#e8eeec" stroke-width="1" stroke-linecap="butt" /><line x1="260.9" y1="254.9" x2="257.2" y2="251.5" stroke="#e8eeec" stroke-width="1" stroke-linecap="butt" /><line x1="254.9" y1="260.9" x2="251.5" y2="257.2" stroke="#e8eeec" stroke-width="1" stroke-linecap="butt" /><line x1="248.2" y1="266.3" x2="245.3" y2="262.3" stroke="#e8eeec" stroke-width="1" stroke-linecap="butt" /><line x1="233.4" y1="274.9" x2="231.3" y2="270.3" stroke="#e8eeec" stroke-width="1" stroke-linecap="butt" /><line x1="225.3" y1="278.0" x2="223.8" y2="273.2" stroke="#e8eeec" stroke-width="1" stroke-linecap="butt" /><line x1="217.0" y1="280.2" x2="216.0" y2="275.3" stroke="#e8eeec" stroke-width="1" stroke-linecap="butt" /><line x1="208.6" y1="281.6" x2="208.0" y2="276.6" stroke="#e8eeec" stroke-width="1" stroke-linecap="butt" /><line x1="191.4" y1="281.6" x2="192.0" y2="276.6" stroke="#e8eeec" stroke-width="1" stroke-linecap="butt" /><line x1="183.0" y1="280.2" x2="184.0" y2="275.3" stroke="#e8eeec" stroke-width="1" stroke-linecap="butt" /><line x1="174.7" y1="278.0" x2="176.2" y2="273.2" stroke="#e8eeec" stroke-width="1" stroke-linecap="butt" /><line x1="166.6" y1="274.9" x2="168.7" y2="270.3" stroke="#e8eeec" stroke-width="1" stroke-linecap="butt" /><line x1="151.8" y1="266.3" x2="154.7" y2="262.3" stroke="#e8eeec" stroke-width="1" stroke-linecap="butt" /><line x1="145.1" y1="260.9" x2="148.5" y2="257.2" stroke="#e8eeec" stroke-width="1" stroke-linecap="butt" /><line x1="139.1" y1="254.9" x2="142.8" y2="251.5" stroke="#e8eeec" stroke-width="1" stroke-linecap="butt" /><line x1="133.7" y1="248.2" x2="137.7" y2="245.3" stroke="#e8eeec" stroke-width="1" stroke-linecap="butt" /><line x1="125.1" y1="233.4" x2="129.7" y2="231.3" stroke="#e8eeec" stroke-width="1" stroke-linecap="butt" /><line x1="122.0" y1="225.3" x2="126.8" y2="223.8" stroke="#e8eeec" stroke-width="1" stroke-linecap="butt" /><line x1="119.8" y1="217.0" x2="124.7" y2="216.0" stroke="#e8eeec" stroke-width="1" stroke-linecap="butt" /><line x1="118.4" y1="208.6" x2="123.4" y2="208.0" stroke="#e8eeec" stroke-width="1" stroke-linecap="butt" /><line x1="118.4" y1="191.4" x2="123.4" y2="192.0" stroke="#e8eeec" stroke-width="1" stroke-linecap="butt" /><line x1="119.8" y1="183.0" x2="124.7" y2="184.0" stroke="#e8eeec" stroke-width="1" stroke-linecap="butt" /><line x1="122.0" y1="174.7" x2="126.8" y2="176.2" stroke="#e8eeec" stroke-width="1" stroke-linecap="butt" /><line x1="125.1" y1="166.6" x2="129.7" y2="168.7" stroke="#e8eeec" stroke-width="1" stroke-linecap="butt" /><line x1="133.7" y1="151.8" x2="137.7" y2="154.7" stroke="#e8eeec" stroke-width="1" stroke-linecap="butt" /><line x1="139.1" y1="145.1" x2="142.8" y2="148.5" stroke="#e8eeec" stroke-width="1" stroke-linecap="butt" /><line x1="145.1" y1="139.1" x2="148.5" y2="142.8" stroke="#e8eeec" stroke-width="1" stroke-linecap="butt" /><line x1="151.8" y1="133.7" x2="154.7" y2="137.7" stroke="#e8eeec" stroke-width="1" stroke-linecap="butt" /><line x1="166.6" y1="125.1" x2="168.7" y2="129.7" stroke="#e8eeec" stroke-width="1" stroke-linecap="butt" /><line x1="174.7" y1="122.0" x2="176.2" y2="126.8" stroke="#e8eeec" stroke-width="1" stroke-linecap="butt" /><line x1="183.0" y1="119.8" x2="184.0" y2="124.7" stroke="#e8eeec" stroke-width="1" stroke-linecap="butt" /><line x1="191.4" y1="118.4" x2="192.0" y2="123.4" stroke="#e8eeec" stroke-width="1" stroke-linecap="butt" /><circle cx="200.0" cy="134.0" r="6" fill="#e8eeec"/><circle cx="233.0" cy="142.8" r="4.5" fill="#e8eeec"/><circle cx="257.2" cy="167.0" r="4.5" fill="#e8eeec"/><circle cx="266.0" cy="200.0" r="6" fill="#e8eeec"/><circle cx="257.2" cy="233.0" r="4.5" fill="#e8eeec"/><circle cx="233.0" cy="257.2" r="4.5" fill="#e8eeec"/><circle cx="200.0" cy="266.0" r="6" fill="#e8eeec"/><circle cx="167.0" cy="257.2" r="4.5" fill="#e8eeec"/><circle cx="142.8" cy="233.0" r="4.5" fill="#e8eeec"/><circle cx="134.0" cy="200.0" r="6" fill="#e8eeec"/><circle cx="142.8" cy="167.0" r="4.5" fill="#e8eeec"/><circle cx="167.0" cy="142.8" r="4.5" fill="#e8eeec"/><rect x="242" y="191" width="26" height="18" rx="2" fill="#f7f7f4" stroke="#e8eeec" stroke-width="1"/><text x="255" y="200" dy=".35em" text-anchor="middle" font-family="Arial, sans-serif" font-size="11" fill="#222">29</text><line x1="211.5" y1="208.0" x2="164.2" y2="174.9" stroke="#e8eeec" stroke-width="8" stroke-linecap="round" /><line x1="187.9" y1="207.0" x2="258.2" y2="166.4" stroke="#e8eeec" stroke-width="6" stroke-linecap="round" /><line x1="188.0" y1="179.2" x2="237.0" y2="264.0" stroke="#ff6a2b" stroke-width="2.2" stroke-linecap="round" /><circle cx="200" cy="200" r="7.5" fill="#e8eeec"/><circle cx="200" cy="200" r="3" fill="#ff6a2b"/><ellipse cx="178" cy="154" rx="52" ry="24" fill="#fff" opacity=".13" transform="rotate(-28 178 154)"/>
</svg>