<svg xmlns="http://www.w3.org/2000/svg" viewBox="0 0 400 400" width="400" height="400">
<defs>
<radialGradient id="bg" cx="50%" cy="40%" r="80%"><stop offset="0" stop-color="#e5eae8"/><stop offset="1" stop-color="#c5d1cc"/></radialGradient>
<filter id="sh" x="-30%" y="-30%" width="160%" height="170%"><feDropShadow dx="0" dy="9" stdDeviation="9" flood-color="#0b1a17" flood-opacity=".35"/></filter>

</defs>
<rect width="400" height="400" fill="url(#bg)"/>
<rect y="300" width="400" height="100" fill="#8d9895"/><rect x="40" y="70" width="320" height="250" fill="#16403a"/><rect x="40" y="70" width="320" height="64" fill="#0f2b26"/><text x="200" y="112" text-anchor="middle" font-family="Georgia, serif" font-size="34" fill="#d6b26a" letter-spacing="6">ALBERTO</text><path d="M 40 142 h32 l-4 34 h-24 z" fill="#d6b26a"/><path d="M 72 142 h32 l-4 34 h-24 z" fill="#f3f0e6"/><path d="M 104 142 h32 l-4 34 h-24 z" fill="#d6b26a"/><path d="M 136 142 h32 l-4 34 h-24 z" fill="#f3f0e6"/><path d="M 168 142 h32 l-4 34 h-24 z" fill="#d6b26a"/><path d="M 200 142 h32 l-4 34 h-24 z" fill="#f3f0e6"/><path d="M 232 142 h32 l-4 34 h-24 z" fill="#d6b26a"/><path d="M 264 142 h32 l-4 34 h-24 z" fill="#f3f0e6"/><path d="M 296 142 h32 l-4 34 h-24 z" fill="#d6b26a"/><path d="M 328 142 h32 l-4 34 h-24 z" fill="#f3f0e6"/><rect x="62" y="196" width="102" height="94" fill="#dfe8e4"/><rect x="62" y="196" width="102" height="94" fill="none" stroke="#d6b26a" stroke-width="4"/><circle cx="84" cy="250" r="11" fill="#b9c0c4" stroke="#5d7269"/><line x1="84.0" y1="250.0" x2="88.0" y2="244.0" stroke="#1f2b28" stroke-width="1.5" stroke-linecap="butt" /><line x1="84.0" y1="250.0" x2="80.0" y2="246.0" stroke="#1f2b28" stroke-width="1.5" stroke-linecap="butt" /><circle cx="114" cy="250" r="11" fill="#b9c0c4" stroke="#5d7269"/><line x1="114.0" y1="250.0" x2="118.0" y2="244.0" stroke="#1f2b28" stroke-width="1.5" stroke-linecap="butt" /><line x1="114.0" y1="250.0" x2="110.0" y2="246.0" stroke="#1f2b28" stroke-width="1.5" stroke-linecap="butt" /><circle cx="144" cy="250" r="11" fill="#b9c0c4" stroke="#5d7269"/><line x1="144.0" y1="250.0" x2="148.0" y2="244.0" stroke="#1f2b28" stroke-width="1.5" stroke-linecap="butt" /><line x1="144.0" y1="250.0" x2="140.0" y2="246.0" stroke="#1f2b28" stroke-width="1.5" stroke-linecap="butt" /><rect x="236" y="196" width="102" height="94" fill="#dfe8e4"/><rect x="236" y="196" width="102" height="94" fill="none" stroke="#d6b26a" stroke-width="4"/><circle cx="258" cy="250" r="11" fill="#b9c0c4" stroke="#5d7269"/><line x1="258.0" y1="250.0" x2="262.0" y2="244.0" stroke="#1f2b28" stroke-width="1.5" stroke-linecap="butt" /><line x1="258.0" y1="250.0" x2="254.0" y2="246.0" stroke="#1f2b28" stroke-width="1.5" stroke-linecap="butt" /><circle cx="288" cy="250" r="11" fill="#b9c0c4" stroke="#5d7269"/><line x1="288.0" y1="250.0" x2="292.0" y2="244.0" stroke="#1f2b28" stroke-width="1.5" stroke-linecap="butt" /><line x1="288.0" y1="250.0" x2="284.0" y2="246.0" stroke="#1f2b28" stroke-width="1.5" stroke-linecap="butt" /><circle cx="318" cy="250" r="11" fill="#b9c0c4" stroke="#5d7269"/><line x1="318.0" y1="250.0" x2="322.0" y2="244.0" stroke="#1f2b28" stroke-width="1.5" stroke-linecap="butt" /><line x1="318.0" y1="250.0" x2="314.0" y2="246.0" stroke="#1f2b28" stroke-width="1.5" stroke-linecap="butt" /><rect x="168" y="204" width="64" height="116" fill="#0f2b26" stroke="#d6b26a" stroke-width="3"/><circle cx="220" cy="264" r="3.4" fill="#d6b26a"/><line x1="350" y1="128" x2="350" y2="164" stroke="#5d7269" stroke-width="3"/><circle cx="350" cy="190" r="26" fill="#f6f7f5" stroke="#d6b26a" stroke-width="4"/><line x1="350.0" y1="190.0" x2="350.0" y2="172.0" stroke="#1f2b28" stroke-width="3" stroke-linecap="round" /><line x1="350.0" y1="190.0" x2="362.0" y2="194.0" stroke="#1f2b28" stroke-width="3" stroke-linecap="round" />
</svg>